<?xml version="1.0" standalone="no"?>
<!DOCTYPE svg PUBLIC "-//W3C//DTD SVG 20010904//EN"
 "http://www.w3.org/TR/2001/REC-SVG-20010904/DTD/svg10.dtd">
<svg version="1.0" xmlns="http://www.w3.org/2000/svg"
 width="700.000000pt" height="700.000000pt" viewBox="0 0 700.000000 700.000000"
 preserveAspectRatio="xMidYMid meet">
<metadata>
Created by potrace 1.14, written by Peter Selinger 2001-2017
</metadata>
<g transform="translate(0.000000,700.000000) scale(0.100000,-0.100000)"
fill="#000000" stroke="none">
<path d="M3374 5446 c-200 -49 -362 -214 -406 -416 -12 -54 -15 -222 -15 -990
l0 -926 -66 -67 c-173 -175 -258 -380 -259 -622 -1 -211 63 -396 190 -553 332
-411 942 -441 1308 -64 190 195 278 469 238 742 -28 192 -107 350 -249 495
l-68 69 0 926 c0 727 -3 939 -13 990 -32 153 -152 305 -294 373 -41 19 -99 40
-128 46 -68 14 -173 13 -238 -3z m264 -236 c65 -28 143 -111 167 -177 10 -26
19 -87 21 -135 l4 -87 -103 0 c-222 1 -213 2 -245 -31 -52 -52 -44 -131 17
-168 26 -16 52 -18 181 -18 l151 1 -3 -110 -3 -110 -151 0 c-161 -1 -189 -8
-215 -56 -14 -27 -14 -81 0 -108 26 -47 54 -55 210 -57 80 -1 149 -2 153 -3 4
0 7 -48 6 -106 l0 -105 -26 -1 c-15 -1 -66 -1 -114 -1 -80 -1 -90 2 -118 26
-44 37 -99 36 -142 -3 l-33 -29 -3 -550 -2 -549 -63 -27 c-283 -120 -352 -494
-132 -711 211 -207 565 -147 695 119 64 130 62 255 -5 393 -44 89 -125 165
-215 201 l-60 24 2 442 3 441 105 0 105 0 2 -343 c2 -331 3 -344 23 -378 12
-18 26 -34 31 -34 22 0 147 -142 187 -212 81 -144 107 -332 67 -490 -76 -302
-356 -510 -662 -493 -103 6 -136 12 -211 42 -410 165 -546 664 -277 1021 26
34 73 83 104 108 31 26 62 56 68 69 10 18 13 253 15 1006 l3 984 27 55 c36 73
101 135 174 166 75 32 181 29 262 -6z"/>
</g>
</svg>
